<?xml version="1.0" standalone="no"?>
<!DOCTYPE svg PUBLIC "-//W3C//DTD SVG 20010904//EN"
 "http://www.w3.org/TR/2001/REC-SVG-20010904/DTD/svg10.dtd">
<svg version="1.0" xmlns="http://www.w3.org/2000/svg"
 width="200.000000pt" height="142.000000pt" viewBox="0 0 200.000000 142.000000"
 preserveAspectRatio="xMidYMid meet">

<g transform="translate(0.000000,142.000000) scale(0.100000,-0.100000)"
fill="#000000" stroke="none">
<path d="M894 1375 c-17 -7 -36 -20 -42 -28 -8 -10 -26 -13 -60 -10 -38 4 -52
1 -74 -17 -16 -12 -28 -28 -28 -35 0 -8 -9 -17 -20 -20 -36 -11 -78 -55 -86
-88 -3 -17 -17 -45 -30 -60 -24 -29 -32 -81 -14 -92 6 -3 10 -10 10 -15 0 -6
-23 -1 -50 10 -70 28 -62 15 10 -17 59 -25 60 -26 60 -65 0 -22 5 -48 10 -58
10 -19 9 -19 -35 0 -25 11 -45 17 -45 15 0 -8 157 -83 187 -89 34 -8 58 -57
43 -87 -10 -17 -13 -17 -78 8 -146 55 -225 83 -229 79 -2 -2 17 -12 44 -22 48
-17 236 -94 240 -98 2 -2 -3 -14 -9 -28 l-12 -25 -70 23 c-86 30 -100 24 -17
-6 33 -13 75 -33 93 -46 17 -13 42 -24 55 -24 20 0 22 -2 12 -19 -18 -28 -4
-51 30 -51 42 0 63 25 59 69 -3 33 -6 36 -38 39 -60 5 -63 9 -38 42 20 28 27
30 59 25 23 -4 50 -1 73 9 27 11 44 13 62 6 36 -14 74 -12 106 4 24 13 32 12
65 -4 21 -10 49 -32 61 -50 l24 -32 -24 12 c-22 11 -22 11 2 -9 14 -11 28 -21
32 -21 7 0 22 -79 16 -85 -2 -3 -37 11 -78 30 -40 20 -74 34 -76 32 -2 -2 35
-23 82 -47 70 -37 86 -50 93 -75 4 -16 7 -32 5 -34 -2 -2 -35 13 -74 34 -40
20 -74 34 -77 31 -4 -3 -2 -6 3 -6 6 0 52 -25 103 -55 102 -60 126 -65 194
-36 51 22 77 53 77 93 0 60 -79 61 -116 1 -36 -58 -73 -71 -66 -24 6 41 -25
178 -49 217 -20 33 -20 33 0 43 11 6 23 20 26 31 4 14 15 20 34 20 16 0 40 9
55 21 21 16 26 29 26 64 0 24 -5 47 -10 50 -6 4 0 18 15 37 51 60 43 115 -23
163 -33 24 -41 36 -41 63 -1 25 -11 43 -41 73 -26 25 -40 34 -40 24 0 -8 5
-15 10 -15 6 0 22 -11 35 -25 18 -18 25 -35 25 -65 0 -33 4 -42 23 -49 70 -28
94 -113 43 -157 -15 -13 -33 -24 -41 -24 -9 0 -6 -9 10 -25 31 -30 31 -54 3
-90 -18 -23 -26 -26 -60 -22 -32 4 -38 2 -38 -13 0 -49 -102 -78 -159 -46 -21
12 -28 11 -55 -5 -34 -21 -77 -24 -107 -9 -14 8 -27 7 -48 -5 -41 -21 -72 -19
-112 8 -22 15 -38 37 -47 64 -12 38 -16 41 -59 46 -80 9 -122 61 -103 127 7
25 5 34 -16 55 -31 31 -31 65 1 95 14 13 25 32 25 43 0 28 35 73 69 87 17 6
32 22 35 35 13 50 68 71 116 45 14 -7 21 -7 27 3 15 23 62 47 93 47 66 0 130
-61 130 -122 0 -26 3 -28 37 -28 24 0 45 -8 62 -22 l25 -23 -16 25 c-11 18
-26 26 -52 28 -31 3 -36 7 -36 28 0 14 -7 38 -15 54 l-15 29 35 7 c35 6 85
-15 85 -36 0 -6 15 -9 33 -9 17 1 24 3 15 6 -10 2 -31 18 -47 34 -31 31 -75
38 -112 18 -16 -8 -29 -7 -54 5 -49 24 -86 27 -121 11z"/>
<path d="M810 1176 c-12 -14 -35 -28 -51 -31 -32 -7 -49 -31 -49 -69 0 -13 -7
-37 -17 -53 -21 -38 -11 -76 23 -92 15 -6 29 -9 32 -7 2 3 -7 10 -21 15 -36
14 -44 47 -18 75 13 14 18 29 14 44 -8 33 22 72 56 72 20 0 34 8 45 25 12 18
25 25 47 25 18 0 28 4 24 10 -12 19 -61 10 -85 -14z"/>
<path d="M862 1070 c-27 -26 -28 -64 -2 -90 24 -24 48 -25 78 -4 27 19 30 54
4 47 -28 -7 -49 24 -34 48 10 16 9 19 -6 19 -10 0 -28 -9 -40 -20z"/>
<path d="M1071 1071 c-31 -23 -31 -68 -1 -93 29 -23 55 -23 80 2 29 29 26 52
-4 44 -30 -7 -50 21 -35 49 13 23 -8 22 -40 -2z"/>
<path d="M1050 596 c0 -2 7 -7 16 -10 8 -3 12 -2 9 4 -6 10 -25 14 -25 6z"/>
<path d="M118 219 c-11 -6 -18 -22 -18 -39 0 -32 24 -53 73 -64 34 -8 36 -26
2 -26 -14 0 -25 5 -25 10 0 6 -13 10 -30 10 -24 0 -28 -3 -23 -17 10 -30 35
-43 78 -43 31 0 47 6 65 25 33 35 16 70 -39 85 -48 13 -63 30 -27 30 14 0 26
-4 26 -10 0 -5 11 -10 25 -10 31 0 33 23 3 44 -25 18 -84 21 -110 5z"/>
<path d="M300 140 l0 -91 28 3 c19 2 28 9 30 25 2 12 9 26 16 33 11 8 18 3 35
-25 15 -25 27 -35 46 -35 31 0 32 11 0 58 -31 46 -31 53 0 82 33 31 32 40 -4
40 -23 0 -37 -9 -58 -37 l-28 -37 -5 35 c-4 28 -10 35 -32 37 l-28 3 0 -91z"/>
<path d="M520 222 c0 -4 12 -25 27 -47 15 -22 30 -58 33 -80 4 -35 9 -40 33
-43 25 -3 27 -1 27 35 0 25 10 53 30 83 36 55 37 60 5 60 -18 0 -31 -10 -45
-32 l-19 -32 -18 32 c-13 24 -25 32 -45 32 -16 0 -28 -3 -28 -8z"/>
<path d="M731 223 c0 -4 8 -44 18 -88 16 -74 19 -80 44 -83 28 -3 38 10 53 73
l6 30 8 -25 c5 -14 11 -37 14 -52 5 -23 12 -28 35 -28 28 0 30 3 46 77 9 43
18 83 19 88 0 6 -10 10 -24 10 -20 0 -26 -7 -35 -43 -10 -44 -25 -47 -25 -6 0
37 -11 54 -36 54 -18 0 -25 -8 -33 -37 -6 -21 -11 -45 -12 -53 -1 -8 -7 8 -13
35 -10 43 -16 50 -39 53 -15 2 -27 0 -26 -5z"/>
<path d="M1065 221 c-12 -20 -55 -142 -55 -156 0 -20 39 -19 46 0 8 21 74 21
74 0 0 -10 10 -15 30 -15 17 0 30 2 30 5 0 4 -31 93 -52 148 -8 21 -17 27 -39
27 -15 0 -30 -4 -34 -9z m45 -83 c0 -10 -7 -18 -15 -18 -17 0 -18 4 -8 38 4
18 8 20 14 10 5 -7 9 -21 9 -30z"/>
<path d="M1234 217 c-3 -8 -4 -47 -2 -88 3 -71 4 -74 28 -74 21 0 26 5 28 33
4 42 18 41 36 -3 13 -29 20 -35 46 -35 l31 0 -17 31 c-14 28 -14 34 -1 62 28
57 -1 87 -85 87 -40 0 -60 -4 -64 -13z m104 -44 c-2 -10 -13 -19 -26 -21 -17
-3 -22 2 -22 17 0 16 6 21 26 21 19 0 25 -5 22 -17z"/>
<path d="M1450 140 l0 -92 60 4 c78 6 100 25 100 88 0 63 -22 82 -100 88 l-60
4 0 -92z m98 38 c7 -7 12 -24 12 -38 0 -30 -17 -50 -42 -50 -15 0 -18 9 -18
50 0 41 3 50 18 50 10 0 23 -5 30 -12z"/>
<path d="M1689 203 c-21 -52 -49 -136 -49 -145 0 -14 48 -9 54 7 3 9 18 15 36
15 18 0 33 -6 36 -15 7 -18 54 -20 54 -2 0 7 -13 46 -29 87 -26 69 -31 75 -60
78 -26 3 -33 -1 -42 -25z m53 -58 c4 -20 1 -25 -14 -25 -14 0 -18 5 -14 16 3
9 6 20 6 25 0 20 18 7 22 -16z"/>
<path d="M1870 140 c0 -89 0 -90 25 -90 25 0 25 1 25 90 0 89 0 90 -25 90 -25
0 -25 -1 -25 -90z"/>
</g>
</svg>
